<svg xmlns="http://www.w3.org/2000/svg" xmlns:xlink="http://www.w3.org/1999/xlink" width="500" zoomAndPan="magnify" viewBox="0 0 375 374.999991" height="500" preserveAspectRatio="xMidYMid meet" version="1.0"><defs><clipPath id="a2f89c60b0"><path d="M 0.410156 0.410156 L 374.589844 0.410156 L 374.589844 374.589844 L 0.410156 374.589844 Z M 0.410156 0.410156 " clip-rule="nonzero"/></clipPath><clipPath id="ed370b74bb"><path d="M 187.5 0.410156 C 84.171875 0.410156 0.410156 84.171875 0.410156 187.5 C 0.410156 290.828125 84.171875 374.589844 187.5 374.589844 C 290.828125 374.589844 374.589844 290.828125 374.589844 187.5 C 374.589844 84.171875 290.828125 0.410156 187.5 0.410156 Z M 187.5 0.410156 " clip-rule="nonzero"/></clipPath><clipPath id="75cd94415a"><path d="M 15.722656 15.722656 L 359.148438 15.722656 L 359.148438 359.148438 L 15.722656 359.148438 Z M 15.722656 15.722656 " clip-rule="nonzero"/></clipPath><clipPath id="2322c0d243"><path d="M 66 66 L 309 66 L 309 309 L 66 309 Z M 66 66 " clip-rule="nonzero"/></clipPath><clipPath id="a49ab76109"><path d="M -55.429688 187.496094 L 187.410156 -55.34375 L 430.246094 187.496094 L 187.410156 430.335938 Z M -55.429688 187.496094 " clip-rule="nonzero"/></clipPath><clipPath id="b806e6ff1d"><path d="M -55.429688 187.496094 L 187.410156 -55.34375 L 430.246094 187.496094 L 187.410156 430.335938 Z M -55.429688 187.496094 " clip-rule="nonzero"/></clipPath><clipPath id="90faec0e41"><path d="M 174 147 L 199 147 L 199 227.828125 L 174 227.828125 Z M 174 147 " clip-rule="nonzero"/></clipPath></defs><g clip-path="url(#a2f89c60b0)"><g clip-path="url(#ed370b74bb)"><path fill="#d9d9d9" d="M 0.410156 0.410156 L 374.589844 0.410156 L 374.589844 374.589844 L 0.410156 374.589844 Z M 0.410156 0.410156 " fill-opacity="1" fill-rule="nonzero"/></g></g><g clip-path="url(#75cd94415a)"><path fill="#1d003d" d="M 243.675781 131.324219 C 208.515625 96.164062 187.527344 52.945312 187.527344 15.722656 L 187.476562 15.722656 C 187.476562 52.945312 166.484375 96.164062 131.328125 131.324219 C 96.164062 166.484375 52.949219 187.476562 15.722656 187.476562 L 15.722656 187.527344 C 52.949219 187.527344 96.164062 208.515625 131.324219 243.675781 C 166.484375 278.835938 187.472656 322.050781 187.472656 359.277344 L 187.527344 359.277344 C 187.527344 322.050781 208.515625 278.835938 243.675781 243.675781 C 278.835938 208.515625 322.050781 187.527344 359.28125 187.527344 L 359.28125 187.476562 C 322.050781 187.476562 278.835938 166.484375 243.675781 131.324219 Z M 243.675781 131.324219 " fill-opacity="1" fill-rule="nonzero"/></g><g clip-path="url(#2322c0d243)"><g clip-path="url(#a49ab76109)"><g clip-path="url(#b806e6ff1d)"><path fill="#4d02a2" d="M 187.503906 108.050781 C 137.777344 108.050781 92.375 92.335938 66.054688 66.011719 L 66.019531 66.046875 C 92.339844 92.371094 108.058594 137.769531 108.058594 187.496094 C 108.058594 237.21875 92.34375 282.621094 66.019531 308.945312 L 66.054688 308.980469 C 92.378906 282.65625 137.777344 266.941406 187.503906 266.941406 C 237.226562 266.941406 282.625 282.65625 308.949219 308.980469 L 308.964844 308.960938 L 308.984375 308.941406 C 282.664062 282.621094 266.949219 237.21875 266.949219 187.496094 C 266.949219 137.773438 282.664062 92.371094 308.988281 66.050781 L 308.953125 66.015625 C 282.628906 92.335938 237.226562 108.050781 187.503906 108.050781 Z M 187.503906 108.050781 " fill-opacity="1" fill-rule="nonzero"/></g></g></g><path stroke-linecap="round" transform="matrix(0.263219, 0, 0, 0.262355, 121.435785, -23.313763)" fill="none" stroke-linejoin="round" d="M 125.273721 700.913467 L 23.721361 802.472637 L 125.273721 904.031807 " stroke="#555555" stroke-width="38.966" stroke-opacity="1" stroke-miterlimit="4"/><path stroke-linecap="round" transform="matrix(0.263219, 0, 0, 0.262355, 121.435785, -23.313763)" fill="none" stroke-linejoin="round" d="M 376.965674 700.913467 L 478.532875 802.472637 L 376.965674 904.031807 " stroke="#555555" stroke-width="38.966" stroke-opacity="1" stroke-miterlimit="4"/><g clip-path="url(#90faec0e41)"><path stroke-linecap="round" transform="matrix(0.263219, 0, 0, 0.262355, 121.435785, -23.313763)" fill="none" stroke-linejoin="round" d="M 274.864222 670.226845 L 220.236976 935.998899 " stroke="#555555" stroke-width="38.966" stroke-opacity="1" stroke-miterlimit="4"/></g></svg>