<svg xmlns="http://www.w3.org/2000/svg" xmlns:xlink="http://www.w3.org/1999/xlink" viewBox="0,0,256,256" width="24px" height="24px"><g transform="translate(-25.6,-25.6) scale(1.2,1.2)"><g fill-opacity="0" fill="#dddddd" fill-rule="nonzero" stroke="none" stroke-width="1" stroke-linecap="butt" stroke-linejoin="miter" stroke-miterlimit="10" stroke-dasharray="" stroke-dashoffset="0" font-family="none" font-weight="none" font-size="none" text-anchor="none" style="mix-blend-mode: normal"><path d="M21.33333,234.66667v-213.33333h213.33333v213.33333z" id="bgRectangle"></path></g><g fill="#4d02a2" fill-rule="nonzero" stroke="none" stroke-width="1" stroke-linecap="butt" stroke-linejoin="miter" stroke-miterlimit="10" stroke-dasharray="" stroke-dashoffset="0" font-family="none" font-weight="none" font-size="none" text-anchor="none" style="mix-blend-mode: normal"><g transform="scale(10.66667,10.66667)"><path d="M12,2c-5.511,0 -10,4.489 -10,10c0,5.511 4.489,10 10,10c5.511,0 10,-4.489 10,-10c0,-5.511 -4.489,-10 -10,-10zM12,4c4.43012,0 8,3.56988 8,8c0,4.01447 -2.93468,7.31302 -6.78125,7.89844v-5.51367h2.32813l0.36523,-2.36524h-2.69336v-1.29297c0,-0.983 0.32023,-1.85547 1.24023,-1.85547h1.47656v-2.06445c-0.26,-0.035 -0.8087,-0.11133 -1.8457,-0.11133c-2.166,0 -3.43555,1.144 -3.43555,3.75v1.57422h-2.22656v2.36524h2.22656v5.49414c-3.78401,-0.63806 -6.6543,-3.90867 -6.6543,-7.87891c0,-4.43012 3.56988,-8 8,-8z"></path></g></g></g></svg>