<svg xmlns="http://www.w3.org/2000/svg" xmlns:xlink="http://www.w3.org/1999/xlink" width="500" zoomAndPan="magnify" viewBox="0 0 375 374.999991" height="500" preserveAspectRatio="xMidYMid meet" version="1.0"><defs><clipPath id="ca7d3548e0"><path d="M 50 50 L 325 50 L 325 325 L 50 325 Z M 50 50 " clip-rule="nonzero"/></clipPath><clipPath id="bd2fe31218"><path d="M -87.3125 187.496094 L 187.398438 -87.214844 L 462.109375 187.496094 L 187.398438 462.207031 Z M -87.3125 187.496094 " clip-rule="nonzero"/></clipPath><clipPath id="824f70003c"><path d="M -87.3125 187.496094 L 187.398438 -87.214844 L 462.109375 187.496094 L 187.398438 462.207031 Z M -87.3125 187.496094 " clip-rule="nonzero"/></clipPath><clipPath id="9e9ce7e831"><path d="M 219 151 L 261.785156 151 L 261.785156 224 L 219 224 Z M 219 151 " clip-rule="nonzero"/></clipPath></defs><g clip-path="url(#ca7d3548e0)"><g clip-path="url(#bd2fe31218)"><g clip-path="url(#824f70003c)"><path fill="#4d02a2" d="M 187.503906 97.625 C 131.25 97.621094 79.890625 79.84375 50.113281 50.066406 L 50.074219 50.105469 C 79.851562 79.882812 97.628906 131.242188 97.632812 187.496094 C 97.628906 243.746094 79.851562 295.105469 50.074219 324.886719 L 50.113281 324.925781 C 79.894531 295.148438 131.253906 277.367188 187.503906 277.367188 C 243.75 277.367188 295.113281 295.148438 324.886719 324.925781 L 324.929688 324.882812 C 295.152344 295.105469 277.375 243.746094 277.375 187.496094 C 277.375 131.246094 295.152344 79.886719 324.933594 50.109375 L 324.894531 50.070312 C 295.113281 79.847656 243.75 97.625 187.503906 97.625 Z M 187.503906 97.625 " fill-opacity="1" fill-rule="nonzero"/></g></g></g><path fill="#1d003d" d="M 251.050781 123.953125 C 211.277344 84.175781 187.53125 35.285156 187.53125 -6.824219 L 187.472656 -6.824219 C 187.472656 35.285156 163.726562 84.175781 123.953125 123.953125 C 84.175781 163.726562 35.289062 187.472656 -6.824219 187.472656 L -6.824219 187.53125 C 35.289062 187.53125 84.175781 211.277344 123.953125 251.050781 C 163.726562 290.824219 187.472656 339.710938 187.472656 381.824219 L 187.53125 381.824219 C 187.53125 339.710938 211.277344 290.824219 251.050781 251.050781 C 290.824219 211.277344 339.710938 187.53125 381.824219 187.53125 L 381.824219 187.476562 C 339.710938 187.472656 290.824219 163.726562 251.050781 123.953125 Z M 251.050781 123.953125 " fill-opacity="1" fill-rule="nonzero"/><path stroke-linecap="round" transform="matrix(0.297766, 0, 0, 0.296789, 112.764863, -50.983108)" fill="none" stroke-linejoin="round" d="M 125.284421 700.909643 L 23.720841 802.465428 L 125.284421 904.034374 " stroke="#555555" stroke-width="38.966" stroke-opacity="1" stroke-miterlimit="4"/><g clip-path="url(#9e9ce7e831)"><path stroke-linecap="round" transform="matrix(0.297766, 0, 0, 0.296789, 112.764863, -50.983108)" fill="none" stroke-linejoin="round" d="M 376.97634 700.909643 L 478.526801 802.465428 L 376.97634 904.034374 " stroke="#555555" stroke-width="38.966" stroke-opacity="1" stroke-miterlimit="4"/></g><path stroke-linecap="round" transform="matrix(0.297766, 0, 0, 0.296789, 112.764863, -50.983108)" fill="none" stroke-linejoin="round" d="M 274.861783 670.229688 L 220.236267 936.004177 " stroke="#555555" stroke-width="38.966" stroke-opacity="1" stroke-miterlimit="4"/></svg>